<svg viewBox="0 0 24 24" xmlns="http://www.w3.org/2000/svg">
<path d="M19.1667 18.9667C17.8717 18.9667 16.8333 20.005 16.8333 21.3C16.8333 21.9189 17.0792 22.5124 17.5168 22.95C17.9543 23.3875 18.5478 23.6334 19.1667 23.6334C19.7855 23.6334 20.379 23.3875 20.8166 22.95C21.2542 22.5124 21.5 21.9189 21.5 21.3C21.5 20.005 20.45 18.9667 19.1667 18.9667ZM0.5 0.300049V2.63338H2.83333L7.03333 11.4884L5.44667 14.3467C5.27167 14.6734 5.16667 15.0584 5.16667 15.4667C5.16667 16.0856 5.4125 16.679 5.85008 17.1166C6.28767 17.5542 6.88116 17.8 7.5 17.8H21.5V15.4667H7.99C7.91265 15.4667 7.83846 15.436 7.78376 15.3813C7.72906 15.3266 7.69833 15.2524 7.69833 15.175C7.69833 15.1167 7.71 15.07 7.73333 15.035L8.78333 13.1334H17.475C18.35 13.1334 19.12 12.6434 19.5167 11.9317L23.6933 4.38338C23.775 4.19672 23.8333 3.99838 23.8333 3.80005C23.8333 3.49063 23.7104 3.19388 23.4916 2.97509C23.2728 2.7563 22.9761 2.63338 22.6667 2.63338H5.41167L4.315 0.300049M7.5 18.9667C6.205 18.9667 5.16667 20.005 5.16667 21.3C5.16667 21.9189 5.4125 22.5124 5.85008 22.95C6.28767 23.3875 6.88116 23.6334 7.5 23.6334C8.11884 23.6334 8.71233 23.3875 9.14992 22.95C9.5875 22.5124 9.83333 21.9189 9.83333 21.3C9.83333 20.005 8.78333 18.9667 7.5 18.9667Z"/>
</svg>
