<svg width="30" height="34" viewBox="0 0 30 34" fill="none" xmlns="http://www.w3.org/2000/svg">
<path d="M29.1211 18.1288L19.2773 29.2851C18.3984 30.2812 16.875 29.5839 16.875 28.1562V21.7812H8.90625C8.12695 21.7812 7.5 21.0706 7.5 20.1874V13.8124C7.5 12.9292 8.12695 12.2187 8.90625 12.2187H16.875V5.8437C16.875 4.4226 18.3926 3.7187 19.2773 4.71479L29.1211 15.871C29.666 16.4953 29.666 17.5046 29.1211 18.1288ZM11.25 28.9531V26.2968C11.25 25.8585 10.9336 25.4999 10.5469 25.4999H5.625C4.58789 25.4999 3.75 24.5503 3.75 23.3749V10.6249C3.75 9.44955 4.58789 8.49995 5.625 8.49995H10.5469C10.9336 8.49995 11.25 8.14135 11.25 7.70307V5.04682C11.25 4.60854 10.9336 4.24995 10.5469 4.24995H5.625C2.51953 4.24995 0 7.10542 0 10.6249V23.3749C0 26.8945 2.51953 29.7499 5.625 29.7499H10.5469C10.9336 29.7499 11.25 29.3913 11.25 28.9531Z" fill="white"/>
</svg>
