<svg viewBox="0 0 33 28" xmlns="http://www.w3.org/2000/svg">
<path d="M32.5 28C32.5 26.088 32.0861 24.1946 31.2821 22.4281C30.478 20.6616 29.2994 19.0565 27.8137 17.7045C26.328 16.3525 24.5641 15.28 22.6229 14.5483C20.6817 13.8166 18.6011 13.44 16.5 13.44C14.3988 13.44 12.3183 13.8166 10.3771 14.5483C8.43586 15.28 6.67203 16.3525 5.18629 17.7045C3.70055 19.0565 2.522 20.6616 1.71793 22.4281C0.913852 24.1946 0.5 26.088 0.5 28L32.5 28Z"/>
<path d="M23.9483 14.56C23.9483 16.1064 20.7371 17.36 16.7759 17.36C12.8146 17.36 9.60345 16.1064 9.60345 14.56C9.60345 13.0136 12.8146 11.76 16.7759 11.76C20.7371 11.76 23.9483 13.0136 23.9483 14.56Z"/>
<path d="M23.6724 7.84C23.6724 12.1699 20.4612 15.68 16.5 15.68C12.5388 15.68 9.32759 12.1699 9.32759 7.84C9.32759 3.51009 12.5388 0 16.5 0C20.4612 0 23.6724 3.51009 23.6724 7.84Z"/>
</svg>
